<svg width="48" height="48" viewBox="0 0 48 48" fill="none" xmlns="http://www.w3.org/2000/svg">
<path d="M20.0001 24V44H16.0001V28H12.0001V24H20.0001ZM36.0001 28V40C36.0001 42.22 34.2201 44 32.0001 44H28.0001C26.9392 44 25.9218 43.5786 25.1716 42.8284C24.4215 42.0783 24.0001 41.0609 24.0001 40V28C24.0001 26.9391 24.4215 25.9217 25.1716 25.1716C25.9218 24.4214 26.9392 24 28.0001 24H32.0001C33.0609 24 34.0783 24.4214 34.8285 25.1716C35.5786 25.9217 36.0001 26.9391 36.0001 28ZM28.0001 28V40H32.0001V28H28.0001ZM23.0001 6C28.3001 6 33.1001 8 36.8001 11.2L42.0001 6V20H28.0001L33.2401 14.76C30.4601 12.44 26.9201 11 23.0001 11C15.9201 11 9.90006 15.62 7.80006 22L3.06006 20.44C5.84006 12.06 13.7001 6 23.0001 6Z" fill="white"/>
</svg>
