<svg width="48" height="48" viewBox="0 0 48 48" fill="none" xmlns="http://www.w3.org/2000/svg">
<path d="M12 42C15.866 42 19 38.866 19 35C19 31.134 15.866 28 12 28C8.13401 28 5 31.134 5 35C5 38.866 8.13401 42 12 42Z" stroke="#041423" stroke-width="5" stroke-linecap="round" stroke-linejoin="round"/>
<path d="M36 42C39.866 42 43 38.866 43 35C43 31.134 39.866 28 36 28C32.134 28 29 31.134 29 35C29 38.866 32.134 42 36 42Z" stroke="#041423" stroke-width="5" stroke-linecap="round" stroke-linejoin="round"/>
<path d="M5 34V10.883C5 9.492 5 8.796 5.378 8.273C5.755 7.748 6.415 7.528 7.735 7.088L11 6M43 34V10.883C43 9.492 43 8.796 42.623 8.273C42.245 7.748 41.585 7.528 40.265 7.088L37 6M29 34C29 32.6739 28.4732 31.4021 27.5355 30.4645C26.5979 29.5268 25.3261 29 24 29C22.6739 29 21.4021 29.5268 20.4645 30.4645C19.5268 31.4021 19 32.6739 19 34" stroke="#041423" stroke-width="5" stroke-linecap="round" stroke-linejoin="round"/>
</svg>
