<svg width="48" height="48" viewBox="0 0 48 48" fill="none" xmlns="http://www.w3.org/2000/svg">
<path d="M25 6C34.3 6 42.16 12.06 44.94 20.44L40.2 22C38.1 15.62 32.08 11 25 11C21.08 11 17.54 12.44 14.76 14.76L20 20H6V6L11.2 11.2C14.9 8 19.7 6 25 6ZM20 24V44H16V28H12V24H20ZM36 28V40C36 42.22 34.22 44 32 44H28C26.9391 44 25.9217 43.5786 25.1716 42.8284C24.4214 42.0783 24 41.0609 24 40V28C24 26.9391 24.4214 25.9217 25.1716 25.1716C25.9217 24.4214 26.9391 24 28 24H32C33.0609 24 34.0783 24.4214 34.8284 25.1716C35.5786 25.9217 36 26.9391 36 28ZM28 28V40H32V28H28Z" fill="white"/>
</svg>
